<svg width="600" height="600" viewBox="0 0 600 600" fill="none" xmlns="http://www.w3.org/2000/svg">
<rect x="45" y="42" width="340" height="340" rx="24" fill="#0441DC"/>
<path d="M118.859 166.719L128.211 219.777C132.805 245.863 153.247 266.305 179.333 270.898L183.5 271.62C178.086 262.236 174.608 251.703 173.459 240.613L165.552 242.023C162.369 242.581 159.383 240.12 160.006 236.938C161.581 228.833 166.273 221.647 173.033 216.955V192.477C172.573 192.739 172.048 192.903 171.491 193.002L150.819 196.644C147.964 197.136 145.142 195.2 145.602 192.345C146.619 185.914 151.639 180.533 158.431 179.319C164.075 178.334 169.555 180.467 173.066 184.503V177.055C173.066 169.672 175.33 159.861 183.664 152.97C192.195 145.916 205.878 138.566 224.647 135.186C214.639 129.838 196.33 124.686 170.9 129.148C144.552 133.808 128.9 145.588 121.648 154.119C118.695 157.564 118.105 162.289 118.892 166.752L118.859 166.719ZM188.75 173.511V230.867C188.75 257.347 205.32 281.038 230.225 290.061L239.314 293.375C243.941 295.048 249.026 295.048 253.653 293.375L262.775 290.094C287.68 281.037 304.25 257.38 304.25 230.867V173.511C304.25 171.247 303.561 168.983 301.953 167.408C294.537 160.025 276.294 149.033 246.5 149.033C216.706 149.033 198.462 160.058 191.047 167.408C189.439 169.016 188.75 171.247 188.75 173.511ZM210.439 234.903C209.98 232.606 212.736 231.294 214.606 232.738C223.433 239.497 234.491 243.533 246.5 243.533C258.509 243.533 269.534 239.497 278.394 232.738C280.264 231.294 283.02 232.606 282.561 234.903C279.247 251.769 264.35 264.533 246.5 264.533C228.65 264.533 213.753 251.802 210.439 234.903ZM210.603 201.598C212.769 195.43 218.609 191 225.5 191C232.391 191 238.264 195.43 240.397 201.598C241.348 204.355 238.92 206.75 236 206.75H215C212.112 206.75 209.652 204.322 210.603 201.598ZM278 206.75H257C254.112 206.75 251.651 204.322 252.603 201.598C254.736 195.43 260.609 191 267.5 191C274.391 191 280.264 195.43 282.397 201.598C283.348 204.355 280.92 206.75 278 206.75Z" fill="white"/>
<mask id="mask0_8_2" style="mask-type:alpha" maskUnits="userSpaceOnUse" x="214" y="216" width="340" height="341">
<path d="M214 557L214 357H365.5V216H554V557H214Z" fill="#D9D9D9"/>
</mask>
<g mask="url(#mask0_8_2)">
<rect x="214" y="216.5" width="340" height="340" rx="24" fill="#0441DC"/>
<rect x="371.627" y="296.5" width="24.75" height="180" rx="4" fill="white"/>
<rect x="294" y="374.125" width="180" height="24.75" rx="4" fill="white"/>
</g>
</svg>
