<svg width="512" height="512" viewBox="0 0 512 512" fill="none" xmlns="http://www.w3.org/2000/svg">
<g clip-path="url(#clip0_6_2)">
<rect width="340" height="340" rx="24" fill="#0441DC"/>
<path d="M73.8594 124.719L83.2109 177.777C87.8047 203.863 108.247 224.305 134.333 228.898L138.5 229.62C133.086 220.236 129.608 209.703 128.459 198.613L120.552 200.023C117.369 200.581 114.383 198.12 115.006 194.938C116.581 186.833 121.273 179.647 128.033 174.955V150.477C127.573 150.739 127.048 150.903 126.491 151.002L105.819 154.644C102.964 155.136 100.142 153.2 100.602 150.345C101.619 143.914 106.639 138.533 113.431 137.319C119.075 136.334 124.555 138.467 128.066 142.503V135.055C128.066 127.672 130.33 117.861 138.664 110.97C147.195 103.916 160.878 96.5656 179.647 93.1859C169.639 87.8375 151.33 82.6859 125.9 87.1484C99.5515 91.8078 83.9 103.588 76.6484 112.119C73.6953 115.564 73.1047 120.289 73.8922 124.752L73.8594 124.719ZM143.75 131.511V188.867C143.75 215.347 160.32 239.038 185.225 248.061L194.314 251.375C198.941 253.048 204.026 253.048 208.653 251.375L217.775 248.094C242.68 239.037 259.25 215.38 259.25 188.867V131.511C259.25 129.247 258.561 126.983 256.953 125.408C249.537 118.025 231.294 107.033 201.5 107.033C171.706 107.033 153.462 118.058 146.047 125.408C144.439 127.016 143.75 129.247 143.75 131.511ZM165.439 192.903C164.98 190.606 167.736 189.294 169.606 190.738C178.433 197.497 189.491 201.533 201.5 201.533C213.509 201.533 224.534 197.497 233.394 190.738C235.264 189.294 238.02 190.606 237.561 192.903C234.247 209.769 219.35 222.533 201.5 222.533C183.65 222.533 168.753 209.802 165.439 192.903ZM165.603 159.598C167.769 153.43 173.609 149 180.5 149C187.391 149 193.264 153.43 195.397 159.598C196.348 162.355 193.92 164.75 191 164.75H170C167.112 164.75 164.652 162.322 165.603 159.598ZM233 164.75H212C209.112 164.75 206.651 162.322 207.603 159.598C209.736 153.43 215.609 149 222.5 149C229.391 149 235.264 153.43 237.397 159.598C238.348 162.355 235.92 164.75 233 164.75Z" fill="white"/>
<mask id="mask0_6_2" style="mask-type:alpha" maskUnits="userSpaceOnUse" x="157" y="155" width="373" height="364">
<path d="M157 519V312.5H323.5V155.5H529.5V519H157Z" fill="#D9D9D9"/>
</mask>
<g mask="url(#mask0_6_2)">
<rect x="172" y="172" width="340" height="340" rx="24" fill="#0441DC"/>
<rect x="329.627" y="252" width="24.75" height="180" rx="4" fill="white"/>
<rect x="252" y="329.625" width="180" height="24.75" rx="4" fill="white"/>
</g>
</g>
<defs>
<clipPath id="clip0_6_2">
<rect width="512" height="512" fill="white"/>
</clipPath>
</defs>
</svg>
